<svg xmlns="http://www.w3.org/2000/svg" version="1.1" xmlns:xlink="http://www.w3.org/1999/xlink" xmlns:svgjs="http://svgjs.dev/svgjs" viewBox="0 0 11.476908598877504 10.142103423289067"><g transform="matrix(1,0,0,1,0.8987299342043773,8.010373489084689)"><g><path d=" M 1.0635000000000001 1.2225 L 0.7695 1.2225 L 0.378 0.6315 L 0.378 1.2225 L 0.084 1.2225 L 0.084 0.1649999999999998 L 0.378 0.1649999999999998 L 0.7695 0.7634999999999998 L 0.7695 0.1649999999999998 L 1.0635000000000001 0.1649999999999998 L 1.0635000000000001 1.2225 M 1.25327197265625 0.26024999999999987 Q 1.20602197265625 0.2174999999999998 1.20602197265625 0.1529999999999998 Q 1.20602197265625 0.08699999999999997 1.25327197265625 0.04349999999999987 Q 1.30052197265625 0 1.3785219726562499 0 Q 1.4550219726562499 0 1.50227197265625 0.04349999999999987 Q 1.54952197265625 0.08699999999999997 1.54952197265625 0.1529999999999998 Q 1.54952197265625 0.2174999999999998 1.50227197265625 0.26024999999999987 Q 1.4550219726562499 0.30299999999999994 1.3785219726562499 0.30299999999999994 Q 1.30052197265625 0.30299999999999994 1.25327197265625 0.26024999999999987 M 1.52402197265625 0.3809999999999999 L 1.52402197265625 1.2225 L 1.23002197265625 1.2225 L 1.23002197265625 0.3809999999999999 L 1.52402197265625 0.3809999999999999 M 1.6964970703125 0.573 Q 1.7504970703125 0.4754999999999999 1.8472470703125 0.42299999999999993 Q 1.9439970703124998 0.37049999999999994 2.0684970703125 0.37049999999999994 Q 2.2289970703125 0.37049999999999994 2.3384970703125 0.45824999999999994 Q 2.4479970703125 0.5459999999999999 2.4794970703125 0.7034999999999999 L 2.1674970703125 0.7034999999999999 Q 2.1404970703124997 0.6209999999999999 2.0624970703125 0.6209999999999999 Q 2.0069970703125 0.6209999999999999 1.9747470703124999 0.66675 Q 1.9424970703125 0.7124999999999999 1.9424970703125 0.8009999999999999 Q 1.9424970703125 0.8895 1.9747470703124999 0.9359999999999999 Q 2.0069970703125 0.9824999999999999 2.0624970703125 0.9824999999999999 Q 2.1419970703124998 0.9824999999999999 2.1674970703125 0.8999999999999999 L 2.4794970703125 0.8999999999999999 Q 2.4479970703125 1.0559999999999998 2.3384970703125 1.1444999999999999 Q 2.2289970703125 1.2329999999999999 2.0684970703125 1.2329999999999999 Q 1.9439970703124998 1.2329999999999999 1.8472470703125 1.1804999999999999 Q 1.7504970703125 1.128 1.6964970703125 1.0305 Q 1.6424970703125 0.9329999999999999 1.6424970703125 0.8009999999999999 Q 1.6424970703125 0.6704999999999999 1.6964970703125 0.573 M 2.765239013671875 1.1804999999999999 Q 2.6654890136718747 1.128 2.608489013671875 1.0305 Q 2.551489013671875 0.9329999999999999 2.551489013671875 0.8009999999999999 Q 2.551489013671875 0.6704999999999999 2.609239013671875 0.573 Q 2.666989013671875 0.4754999999999999 2.766739013671875 0.42299999999999993 Q 2.866489013671875 0.37049999999999994 2.9924890136718747 0.37049999999999994 Q 3.1184890136718746 0.37049999999999994 3.218239013671875 0.42299999999999993 Q 3.317989013671875 0.4754999999999999 3.375739013671875 0.573 Q 3.433489013671875 0.6704999999999999 3.433489013671875 0.8009999999999999 Q 3.433489013671875 0.9315 3.375739013671875 1.02975 Q 3.317989013671875 1.128 3.217489013671875 1.1804999999999999 Q 3.116989013671875 1.2329999999999999 2.990989013671875 1.2329999999999999 Q 2.8649890136718748 1.2329999999999999 2.765239013671875 1.1804999999999999 M 3.093739013671875 0.9322499999999999 Q 3.1349890136718748 0.8864999999999998 3.1349890136718748 0.8009999999999999 Q 3.1349890136718748 0.7154999999999999 3.093739013671875 0.6704999999999999 Q 3.0524890136718748 0.6255 2.9924890136718747 0.6255 Q 2.9324890136718746 0.6255 2.891989013671875 0.6704999999999999 Q 2.8514890136718747 0.7154999999999999 2.8514890136718747 0.8009999999999999 Q 2.8514890136718747 0.8879999999999999 2.890489013671875 0.9329999999999999 Q 2.929489013671875 0.978 2.990989013671875 0.978 Q 3.0524890136718748 0.978 3.093739013671875 0.9322499999999999 M 3.845968505859375 0.11249999999999982 L 3.845968505859375 1.2225 L 3.551968505859375 1.2225 L 3.551968505859375 0.11249999999999982 L 3.845968505859375 0.11249999999999982 M 4.011693603515624 0.573 Q 4.058943603515624 0.4754999999999999 4.140693603515625 0.42299999999999993 Q 4.222443603515624 0.37049999999999994 4.322943603515625 0.37049999999999994 Q 4.409943603515624 0.37049999999999994 4.472943603515625 0.4049999999999999 Q 4.535943603515625 0.4394999999999999 4.570443603515625 0.4979999999999999 L 4.570443603515625 0.3809999999999999 L 4.864443603515625 0.3809999999999999 L 4.864443603515625 1.2225 L 4.570443603515625 1.2225 L 4.570443603515625 1.1055 Q 4.535943603515625 1.164 4.472193603515625 1.1985 Q 4.408443603515625 1.2329999999999999 4.322943603515625 1.2329999999999999 Q 4.222443603515624 1.2329999999999999 4.140693603515625 1.1804999999999999 Q 4.058943603515624 1.128 4.011693603515624 1.02975 Q 3.9644436035156247 0.9315 3.9644436035156247 0.8009999999999999 Q 3.9644436035156247 0.6704999999999999 4.011693603515624 0.573 M 4.526193603515624 0.6734999999999999 Q 4.481943603515624 0.6269999999999999 4.417443603515625 0.6269999999999999 Q 4.351443603515625 0.6269999999999999 4.307943603515625 0.67275 Q 4.264443603515625 0.7184999999999999 4.264443603515625 0.8009999999999999 Q 4.264443603515625 0.8819999999999999 4.307943603515625 0.9292499999999999 Q 4.351443603515625 0.9764999999999999 4.417443603515625 0.9764999999999999 Q 4.481943603515624 0.9764999999999999 4.526193603515624 0.9299999999999999 Q 4.570443603515625 0.8835 4.570443603515625 0.8009999999999999 Q 4.570443603515625 0.7199999999999999 4.526193603515624 0.6734999999999999 M 5.1861826171875 1.19475 Q 5.0969326171875 1.1564999999999999 5.0451826171875 1.08975 Q 4.9934326171875 1.023 4.987432617187499 0.9389999999999998 L 5.2724326171875 0.9389999999999998 Q 5.2784326171875 0.9794999999999999 5.309932617187499 1.002 Q 5.3414326171874995 1.0245 5.3879326171874995 1.0245 Q 5.4239326171875 1.0245 5.4449326171875 1.0094999999999998 Q 5.4659326171875 0.9944999999999999 5.4659326171875 0.9704999999999999 Q 5.4659326171875 0.9389999999999998 5.431432617187499 0.9239999999999999 Q 5.3969326171875 0.9089999999999999 5.3174326171874995 0.8909999999999999 Q 5.2274326171875 0.8729999999999999 5.1674326171875 0.8504999999999999 Q 5.1074326171874995 0.8279999999999998 5.0631826171875 0.7769999999999999 Q 5.0189326171875 0.726 5.0189326171875 0.6389999999999999 Q 5.0189326171875 0.564 5.0594326171874995 0.5032499999999999 Q 5.099932617187499 0.4424999999999999 5.1786826171875 0.40649999999999986 Q 5.2574326171875 0.37049999999999994 5.3684326171875 0.37049999999999994 Q 5.5334326171875 0.37049999999999994 5.6279326171875 0.4514999999999999 Q 5.7224326171875 0.5324999999999999 5.737432617187499 0.6644999999999999 L 5.4719326171875 0.6644999999999999 Q 5.4644326171875 0.6239999999999999 5.4366826171875 0.60225 Q 5.408932617187499 0.5804999999999999 5.362432617187499 0.5804999999999999 Q 5.3264326171875 0.5804999999999999 5.3076826171875 0.5939999999999999 Q 5.288932617187499 0.6074999999999999 5.288932617187499 0.6315 Q 5.288932617187499 0.6614999999999999 5.3234326171875 0.6772499999999999 Q 5.357932617187499 0.693 5.4344326171874995 0.7094999999999999 Q 5.525932617187499 0.7289999999999999 5.5866826171875 0.7529999999999999 Q 5.6474326171875 0.7769999999999999 5.6931826171874995 0.8302499999999999 Q 5.7389326171874995 0.8835 5.7389326171874995 0.9749999999999999 Q 5.7389326171874995 1.0485 5.6961826171875 1.107 Q 5.6534326171875 1.1655 5.5746826171874995 1.19925 Q 5.4959326171875 1.2329999999999999 5.3894326171874996 1.2329999999999999 Q 5.2754326171875 1.2329999999999999 5.1861826171875 1.19475 M 6.957640869140625 0.6922499999999999 Q 6.913390869140625 0.7709999999999999 6.824140869140624 0.8182499999999999 Q 6.734890869140624 0.8654999999999999 6.605890869140625 0.8654999999999999 L 6.460390869140625 0.8654999999999999 L 6.460390869140625 1.2225 L 6.166390869140624 1.2225 L 6.166390869140624 0.1649999999999998 L 6.605890869140625 0.1649999999999998 Q 6.733390869140624 0.1649999999999998 6.822640869140624 0.20999999999999996 Q 6.911890869140625 0.2549999999999999 6.956890869140625 0.3344999999999999 Q 7.001890869140625 0.4139999999999999 7.001890869140625 0.5175 Q 7.001890869140625 0.6134999999999999 6.957640869140625 0.6922499999999999 M 6.701890869140625 0.5175 Q 6.701890869140625 0.4019999999999999 6.577390869140625 0.4019999999999999 L 6.460390869140625 0.4019999999999999 L 6.460390869140625 0.6315 L 6.577390869140625 0.6315 Q 6.701890869140625 0.6315 6.701890869140625 0.5175 M 7.918370361328124 0.861 L 7.3618703613281244 0.861 Q 7.366370361328125 0.9299999999999999 7.400120361328124 0.9637499999999999 Q 7.4338703613281245 0.9974999999999999 7.486370361328125 0.9974999999999999 Q 7.559870361328125 0.9974999999999999 7.591370361328124 0.9315 L 7.904870361328125 0.9315 Q 7.885370361328125 1.0185 7.829120361328124 1.0867499999999999 Q 7.772870361328124 1.1549999999999998 7.687370361328124 1.194 Q 7.601870361328125 1.2329999999999999 7.498370361328124 1.2329999999999999 Q 7.373870361328125 1.2329999999999999 7.277120361328125 1.1804999999999999 Q 7.180370361328125 1.128 7.125620361328124 1.0305 Q 7.070870361328124 0.9329999999999999 7.070870361328124 0.8009999999999999 Q 7.070870361328124 0.6689999999999999 7.124870361328124 0.5722499999999999 Q 7.178870361328125 0.4754999999999999 7.275620361328125 0.42299999999999993 Q 7.372370361328125 0.37049999999999994 7.498370361328124 0.37049999999999994 Q 7.622870361328125 0.37049999999999994 7.718870361328125 0.4214999999999999 Q 7.814870361328125 0.4724999999999999 7.868870361328124 0.5677499999999999 Q 7.922870361328124 0.6629999999999999 7.922870361328124 0.7919999999999999 Q 7.922870361328124 0.8264999999999999 7.918370361328124 0.861 M 7.622870361328125 0.7184999999999999 Q 7.622870361328125 0.6644999999999999 7.586870361328124 0.6337499999999999 Q 7.5508703613281245 0.6029999999999999 7.496870361328124 0.6029999999999999 Q 7.442870361328125 0.6029999999999999 7.408370361328124 0.6322499999999999 Q 7.373870361328125 0.6614999999999999 7.3633703613281245 0.7184999999999999 L 7.622870361328125 0.7184999999999999 M 8.537912109375 0.972 L 8.537912109375 1.2225 L 8.410412109374999 1.2225 Q 8.087912109374999 1.2225 8.087912109374999 0.9029999999999999 L 8.087912109374999 0.6255 L 7.984412109375 0.6255 L 7.984412109375 0.3809999999999999 L 8.087912109374999 0.3809999999999999 L 8.087912109374999 0.17699999999999982 L 8.383412109375 0.17699999999999982 L 8.383412109375 0.3809999999999999 L 8.536412109375 0.3809999999999999 L 8.536412109375 0.6255 L 8.383412109375 0.6255 L 8.383412109375 0.9075 Q 8.383412109375 0.942 8.399162109375 0.9569999999999999 Q 8.414912109374999 0.972 8.452412109374999 0.972 L 8.537912109375 0.972 M 8.69469287109375 0.26024999999999987 Q 8.64744287109375 0.2174999999999998 8.64744287109375 0.1529999999999998 Q 8.64744287109375 0.08699999999999997 8.69469287109375 0.04349999999999987 Q 8.74194287109375 0 8.81994287109375 0 Q 8.896442871093749 0 8.943692871093749 0.04349999999999987 Q 8.990942871093749 0.08699999999999997 8.990942871093749 0.1529999999999998 Q 8.990942871093749 0.2174999999999998 8.943692871093749 0.26024999999999987 Q 8.896442871093749 0.30299999999999994 8.81994287109375 0.30299999999999994 Q 8.74194287109375 0.30299999999999994 8.69469287109375 0.26024999999999987 M 8.96544287109375 0.3809999999999999 L 8.96544287109375 1.2225 L 8.671442871093749 1.2225 L 8.671442871093749 0.3809999999999999 L 8.96544287109375 0.3809999999999999 M 9.62841796875 0.972 L 9.62841796875 1.2225 L 9.500917968749999 1.2225 Q 9.178417968749999 1.2225 9.178417968749999 0.9029999999999999 L 9.178417968749999 0.6255 L 9.074917968749999 0.6255 L 9.074917968749999 0.3809999999999999 L 9.178417968749999 0.3809999999999999 L 9.178417968749999 0.17699999999999982 L 9.47391796875 0.17699999999999982 L 9.47391796875 0.3809999999999999 L 9.62691796875 0.3809999999999999 L 9.62691796875 0.6255 L 9.47391796875 0.6255 L 9.47391796875 0.9075 Q 9.47391796875 0.942 9.48966796875 0.9569999999999999 Q 9.505417968749999 0.972 9.542917968749999 0.972 L 9.62841796875 0.972" fill="#000000" fill-rule="nonzero"></path></g><g></g><g clip-path="url(#SvgjsClipPath1002)"><g clip-path="url(#SvgjsClipPath1001f449ec9b-53ed-49d9-84a2-5d26806d6c1a)"><path d=" M 1.2327108132112996 -2.151559744981702 C 1.1610683962547848 -2.068988823743674 1.09064025755175 -1.9849607686014483 1.022883531006429 -1.89923272390432 C 0.9621696183314034 -1.823218905235188 0.8771701405863792 -1.7459908083125635 0.8744987284286773 -1.6452057132720217 C 0.8751133585555406 -1.619530853511657 0.8876396526943179 -1.5956037911968721 0.9083891880800841 -1.5804699557549649 C 0.9291387234658385 -1.5653361203130576 0.9557487369050148 -1.560718811504457 0.980383792133917 -1.5679776163493973 C 1.0721832280985426 -1.6019774074474045 1.1127401217654578 -1.6962053999190383 1.1683540657757854 -1.7719763629374654 C 1.2312536793071018 -1.858675830237405 1.2958532823933337 -1.9419753184275255 1.3626385863358559 -2.0269747961725617 C 1.4347667145937821 -2.1168313869315902 1.3096960544832301 -2.240202057487239 1.2327108132112996 -2.151559744981702 Z" fill="#3361e1" transform="matrix(1,0,0,1,0,0)" fill-rule="evenodd"></path></g><g clip-path="url(#SvgjsClipPath1001f449ec9b-53ed-49d9-84a2-5d26806d6c1a)"><path d=" M 1.6489653985112578 -2.175845310051713 C 1.573437291143525 -2.0906029766559833 1.4981520394264978 -2.005846354561652 1.424566777264374 -1.9184183203096197 C 1.361424308082352 -1.8436187798939923 1.2637963365009113 -1.7605621473545652 1.2450964513970104 -1.6617198975196326 C 1.233925091464804 -1.6058630978586113 1.286624767666724 -1.5349492478541888 1.3497672368487459 -1.5616633694311837 C 1.4469094971287872 -1.6031916857008968 1.502523441139103 -1.700819657282338 1.5683373224788268 -1.7802334550612766 C 1.641194017688858 -1.8688757675668013 1.714050712898877 -1.9558180905174343 1.7869074081089078 -2.042274702166668 C 1.8670497728399396 -2.135531272035503 1.730079185845088 -2.268130457317749 1.6477511202577537 -2.17511674309962 Z" fill="#3361e1" transform="matrix(1,0,0,1,0,0)" fill-rule="evenodd"></path></g><g clip-path="url(#SvgjsClipPath1001f449ec9b-53ed-49d9-84a2-5d26806d6c1a)"><path d=" M 2.023448811890797 -2.144516931111407 C 1.9539920957905725 -2.0557936667223062 1.8820258712997755 -1.9690941994223783 1.8075501384184178 -1.8844185292116125 C 1.7274961676269511 -1.8110609558590713 1.6572922494899487 -1.7276325787241529 1.5986942788163339 -1.6362200541961176 C 1.5814669517878195 -1.6016667336412622 1.5886575252902055 -1.5599303573354604 1.6164545012963378 -1.5331340724655513 C 1.6442514773024581 -1.506337787595653 1.6862233343044464 -1.5006815808952298 1.7201221041663735 -1.5191636305586833 C 1.8104467604299508 -1.5802648890643471 1.8887391965421763 -1.6574870815704124 1.9510778279821532 -1.7469622309153623 C 2.0239345231921844 -1.8326902756124905 2.0948483731966183 -1.9206040211659223 2.1628479553926443 -2.0102177562742574 C 2.2376474958082726 -2.1071171609035817 2.101405475765526 -2.2433591809463396 2.023448811890797 -2.144516931111407 Z" fill="#3361e1" transform="matrix(1,0,0,1,0,0)" fill-rule="evenodd"></path></g><g clip-path="url(#SvgjsClipPath1001f449ec9b-53ed-49d9-84a2-5d26806d6c1a)"><path d=" M 2.459860416198854 -2.1799738561136124 C 2.3768037836594145 -2.0777316271688733 2.295204285024197 -1.9747608312720404 2.2170047654987624 -1.8683900562654019 C 2.1352811208603324 -1.779493498667608 2.071753220798702 -1.675456249345899 2.0300059144597045 -1.5621490807325946 C 2.0227491531112074 -1.5284016564836191 2.036028363208542 -1.4935437256726702 2.063899517131031 -1.4731783627312023 C 2.09177067105352 -1.452812999789721 2.1290154046209837 -1.4507532467175395 2.1589622649814384 -1.4679210882609608 C 2.244030053498108 -1.542418297879137 2.3160922731044162 -1.6305672999943797 2.3721895262961157 -1.7287480571128597 C 2.4482033449652363 -1.8343902651673947 2.526160008839965 -1.9376039167149326 2.6067880848724077 -2.0393604343582723 C 2.6874161609048386 -2.1411169520016005 2.542917048738281 -2.2822160850583515 2.459860416198854 -2.1799738561136124 Z" fill="#3361e1" transform="matrix(1,0,0,1,0,0)" fill-rule="evenodd"></path></g><g clip-path="url(#SvgjsClipPath1001f449ec9b-53ed-49d9-84a2-5d26806d6c1a)"><path d=" M 2.855472271189302 -2.1819167013192216 C 2.785286988136985 -2.0986172131290886 2.714615993783245 -2.0150748692882496 2.64515927768302 -1.931532525447424 C 2.5713846949947134 -1.855870280863706 2.5074908840392753 -1.7711681406699036 2.4550033031848613 -1.6794483600207348 C 2.4195463781826443 -1.6019774074474045 2.5035744333248697 -1.49536377679006 2.586145354562898 -1.5548634112115822 C 2.667001414447908 -1.6216975934025761 2.7389117131699043 -1.6986685487883184 2.800101182829692 -1.783876289821765 L 3.0074999085275542 -2.0362033108991593 C 3.0932279532246953 -2.14014552939879 2.9424145941399353 -2.286587486770957 2.854986559887903 -2.181916701319209 Z" fill="#3361e1" transform="matrix(1,0,0,1,0,0)" fill-rule="evenodd"></path></g><g clip-path="url(#SvgjsClipPath1001f449ec9b-53ed-49d9-84a2-5d26806d6c1a)"><path d=" M 3.272455423441353 -2.1826452682713144 C 3.2076129647044276 -2.0949743783685877 3.1393705268577077 -2.0075463441165438 3.0679709655518743 -1.9237611446250238 C 2.9886556978243144 -1.8520566554037003 2.9206182620984613 -1.7687906239558346 2.8661579198201093 -1.6767769478630328 C 2.8474798968108153 -1.6402688933509477 2.854987619260599 -1.595828971044158 2.884622161699628 -1.5674828869720523 C 2.914256704138645 -1.5391368028999475 2.9589862686842583 -1.5336106246024253 2.9946285590404442 -1.5538919886087834 C 3.08933585883652 -1.6157305534123179 3.1702059657427752 -1.6965179710477116 3.2321413854251317 -1.7911619593427774 C 3.304998080635163 -1.8781042822934104 3.3729976628311893 -1.9684465843538383 3.4392972554723125 -2.06000316466777 C 3.5077825489697383 -2.1554454353929087 3.342154995192283 -2.2785732502978515 3.271969712139954 -2.1814309900178097 Z" fill="#3361e1" transform="matrix(1,0,0,1,0,0)" fill-rule="evenodd"></path></g><g clip-path="url(#SvgjsClipPath1001f449ec9b-53ed-49d9-84a2-5d26806d6c1a)"><path d=" M 3.7350954380250174 -2.1690453518321116 C 3.6731944960117557 -2.06982958392987 3.6052275473854496 -1.9745298647939427 3.531582402738337 -1.8836899622594956 C 3.4562275059005825 -1.8108680822184215 3.394610195436504 -1.7250645377403968 3.3496835203639774 -1.630391518579315 C 3.3426851292126343 -1.6013402837486108 3.351688998741365 -1.5707606473744038 3.3733136138834574 -1.5501371718222146 C 3.394938229025574 -1.5295136962700138 3.425910025927922 -1.5219683915108746 3.4545971614664186 -1.5303349904908776 C 3.557191111262118 -1.586578616963827 3.642372647515741 -1.6699120331014914 3.7008527912763047 -1.77124779598536 C 3.7740754906859273 -1.8686157849122615 3.841854852655538 -1.969960524699351 3.9038801152615856 -2.0748173593604653 C 3.9684797183478113 -2.1828881239220195 3.8013950306661406 -2.273716137283847 3.7350954380250174 -2.1690453518321116 Z" fill="#3361e1" transform="matrix(1,0,0,1,0,0)" fill-rule="evenodd"></path></g><g clip-path="url(#SvgjsClipPath1001f449ec9b-53ed-49d9-84a2-5d26806d6c1a)"><path d=" M 4.2671921687089185 -2.2190736158763293 L 3.970665419204108 -1.8615900980458004 C 3.8905230544730762 -1.7644478377657586 3.7569524465880315 -1.6541913723479142 3.7370382832306266 -1.5254778774768738 C 3.7287811911068274 -1.4720496343228602 3.7746809090891342 -1.4084214538394395 3.8356376774148653 -1.4319784519573444 C 3.9626511827310082 -1.4805495820973533 4.035022166639634 -1.6189773029964147 4.117350232226963 -1.7219480988932467 C 4.214492492506998 -1.8433759242432863 4.309449051930731 -1.9648037495933384 4.405862745258666 -2.086231574943378 C 4.482605130879898 -2.182159556969915 4.346363110837145 -2.3150015979028664 4.2671921687089185 -2.2190736158763293 Z" fill="#3361e1" transform="matrix(1,0,0,1,0,0)" fill-rule="evenodd"></path></g><g clip-path="url(#SvgjsClipPath1001f449ec9b-53ed-49d9-84a2-5d26806d6c1a)"><path d=" M 4.725946492881389 -2.244087747898445 C 4.3906346912333705 -1.8965548860130887 4.0860108311653445 -1.5206706564386119 3.815480658406743 -1.1206375077598159 C 3.793423827880461 -1.0781531688566508 3.8056037345929457 -1.0259334324189515 3.844180336748451 -0.9975914389985743 C 3.882756938903969 -0.969249445578197 3.936230032512173 -0.9732343246374402 3.970179707902709 -1.0069810632321756 C 4.294149145936631 -1.3469789742123082 4.553033269582926 -1.7598335804024599 4.849560019087736 -2.1258170460074943 C 4.918531023886562 -2.2105736681018247 4.798560332440713 -2.3283586586913643 4.725946492881389 -2.244087747898445 Z" fill="#3361e1" transform="matrix(1,0,0,1,0,0)" fill-rule="evenodd"></path></g><g clip-path="url(#SvgjsClipPath1001f449ec9b-53ed-49d9-84a2-5d26806d6c1a)"><path d=" M 5.133701130406836 -2.2008594420738277 C 4.976006861218916 -2.015803436240355 4.820093533469458 -1.8296141040369545 4.665961147158467 -1.6422914454636146 C 4.5090656517453045 -1.48042072859272 4.368802504177125 -1.3032205340431187 4.247278005351513 -1.1133518382388266 C 4.223686424866515 -1.0670474138393162 4.237185394617128 -1.0104663416774748 4.279140495446194 -0.9797998794887492 C 4.321095596275262 -0.9491334173000237 4.379104510736266 -0.9534468561100553 4.416062682588075 -0.9899811676831662 C 4.574928155064 -1.1550859273106404 4.718932095586083 -1.3338718579813884 4.846402895628636 -1.52426359922337 C 4.989040114473155 -1.704462492042838 5.132567804036908 -1.883447106608802 5.2769859643198895 -2.061217442921275 C 5.357128329050915 -2.1617596823111107 5.21627205164487 -2.299215980607361 5.133701130406836 -2.2008594420738277 Z" fill="#3361e1" transform="matrix(1,0,0,1,0,0)" fill-rule="evenodd"></path></g><g clip-path="url(#SvgjsClipPath1001f449ec9b-53ed-49d9-84a2-5d26806d6c1a)"><path d=" M 5.5584556634812925 -2.205959410738526 C 5.275285974764986 -1.7999047627679756 4.947430846319871 -1.4208070920251377 4.674218239282267 -1.0089239084377848 C 4.607675790990443 -0.9081388133972554 4.764560541342706 -0.7952109358217081 4.844217194772327 -0.8843389596286322 C 5.166876657174482 -1.2720331537060101 5.458017059155362 -1.6849084127494738 5.71485470253215 -2.119017087787893 C 5.777754316063467 -2.2168879150200267 5.622812410916813 -2.2984874136552564 5.5584556634812925 -2.205959410738526 Z" fill="#3361e1" transform="matrix(1,0,0,1,0,0)" fill-rule="evenodd"></path></g><g clip-path="url(#SvgjsClipPath1001f449ec9b-53ed-49d9-84a2-5d26806d6c1a)"><path d=" M 5.980053073096642 -2.2001308751217232 C 5.8459967539101925 -2.0107034675756568 5.712021386607313 -1.8210332043788853 5.578126971187992 -1.6311200855314194 C 5.430264135614387 -1.4523687187802663 5.301877646686979 -1.2583642779977557 5.195143610033955 -1.0523950699130955 C 5.174105282183918 -1.011073484823461 5.186076669676306 -0.9605958870299212 5.223430522472355 -0.9331227307799219 C 5.260784375268404 -0.9056495745299218 5.312536373828083 -0.9092596496787273 5.345714113468008 -0.9416528931938748 C 5.495828215020784 -1.1110778509879573 5.626941886503951 -1.2964286064511148 5.736711711095158 -1.4943923541872737 C 5.872468019836505 -1.6991196677274463 6.007010050324355 -1.9048184038704168 6.142280647764303 -2.1105171400133997 C 6.2088230960561255 -2.2115450907046235 6.04708123268987 -2.2958160014975544 5.980053073096642 -2.2001308751217232 Z" fill="#3361e1" transform="matrix(1,0,0,1,0,0)" fill-rule="evenodd"></path></g><g clip-path="url(#SvgjsClipPath1001f449ec9b-53ed-49d9-84a2-5d26806d6c1a)"><path d=" M 6.4315217277481125 -2.265701900810753 L 6.1536948633472095 -1.937846772365626 C 6.0598746380495445 -1.8479240799258587 5.981878324914485 -1.7428343106491502 5.922981995182123 -1.6269915394695085 C 5.894082172748814 -1.5480634529919923 5.997052968645653 -1.4888066742211645 6.060438293478374 -1.5259635887782732 C 6.161441292523075 -1.6065432798808468 6.248494489465128 -1.7031961224800378 6.318108138871178 -1.8120475453029812 C 6.4043218948697005 -1.9176897533575268 6.48956422826543 -2.0228462501106623 6.574806561661166 -2.1277598912131035 C 6.65640606029639 -2.226602141048036 6.514578360287546 -2.3643012949949807 6.4315217277481125 -2.265701900810753 Z" fill="#3361e1" transform="matrix(1,0,0,1,0,0)" fill-rule="evenodd"></path></g><g clip-path="url(#SvgjsClipPath1001f449ec9b-53ed-49d9-84a2-5d26806d6c1a)"><path d=" M 5.799125613325075 -1.3967643826058334 C 5.750554483185061 -1.3297362230126053 5.699797652188743 -1.2617366408165784 5.650255099445919 -1.1947084812233504 C 5.595505285316208 -1.1359058508136366 5.551819438663741 -1.0677032766612893 5.521298748924172 -0.9933811467929852 C 5.51367461345633 -0.960669320487419 5.5262633851197736 -0.9265597517124595 5.553310684738692 -0.9066440642977476 C 5.580357984357621 -0.8867283768830241 5.616667043428168 -0.8848330976370722 5.64564084208262 -0.901824566479041 C 5.706768489566372 -0.9537408742114879 5.757810250025255 -1.016472844323852 5.7962113455166735 -1.0868805723125137 C 5.844782475656689 -1.1558515771113393 5.891896471892512 -1.2240940149580588 5.940467602032526 -1.29282216410619 C 5.997538679947051 -1.374178807090714 5.858625247746597 -1.4771496029875584 5.799125613325075 -1.3967643826058334 Z" fill="#3361e1" transform="matrix(1,0,0,1,0,0)" fill-rule="evenodd"></path></g><g clip-path="url(#SvgjsClipPath1001f449ec9b-53ed-49d9-84a2-5d26806d6c1a)"><path d=" M 6.861376229487267 -2.2013451533752155 C 6.780748153454843 -2.104202893095186 6.699391510470313 -2.0070606328151444 6.618520578787182 -1.909918372535115 C 6.532219744614835 -1.8250523382529833 6.458018279643708 -1.7287048413356212 6.398007647951504 -1.623591560359701 C 6.3647364238055895 -1.5461206077863832 6.444150221584517 -1.4421783892867408 6.527692565425349 -1.4997351785026654 C 6.61913709679588 -1.5780769031550141 6.699093172307522 -1.6689063508988164 6.765205391810037 -1.7695478064304693 C 6.845104900890369 -1.8688757675668013 6.9230615647650975 -1.9669894504496286 7.002475362544025 -2.0660745559352787 C 7.081889160322952 -2.165159661420917 6.941761449869005 -2.2987302693059624 6.860647662535174 -2.2013451533752155 Z" fill="#3361e1" transform="matrix(1,0,0,1,0,0)" fill-rule="evenodd"></path></g><g clip-path="url(#SvgjsClipPath1001f449ec9b-53ed-49d9-84a2-5d26806d6c1a)"><path d=" M 7.319159131056933 -2.2127593689581273 C 7.246302435846908 -2.102502903540282 7.171260039780581 -1.9941892833280468 7.094031942857956 -1.8866042300679036 C 7.009522194941856 -1.7962778906437507 6.941688088925629 -1.6916900326405413 6.893676031030383 -1.5776918423773942 C 6.88668567756041 -1.5459401717378478 6.899270273738693 -1.5130753261618608 6.925679944876752 -1.4941131822847353 C 6.952089616014812 -1.475151038407609 6.987252934487617 -1.4737328812641053 7.015103856380429 -1.4905066637760562 C 7.1117770862066605 -1.56822405131412 7.192020237495082 -1.6644002563048703 7.251159548860919 -1.7734334968416512 C 7.332759047496148 -1.887332797020008 7.410230000069478 -2.003174942403951 7.486729530040003 -2.120231366041385 C 7.55327197833182 -2.2232021619382296 7.386187290650161 -2.313301608347963 7.319159131056933 -2.2127593689581273 Z" fill="#3361e1" transform="matrix(1,0,0,1,0,0)" fill-rule="evenodd"></path></g><g clip-path="url(#SvgjsClipPath1001f449ec9b-53ed-49d9-84a2-5d26806d6c1a)"><path d=" M 7.690728276628071 -2.1651596614209057 C 7.624914395288353 -2.068017401140864 7.555943390489522 -1.9708751408608345 7.484543829183701 -1.8759185814370962 C 7.413629168418091 -1.8006963457290546 7.354954316544278 -1.7148147189640266 7.310659183282435 -1.6214058595034109 C 7.286373618212424 -1.552434854704586 7.375015930717955 -1.4999780341533588 7.43208700863248 -1.5332492582992732 C 7.518504853013142 -1.6015920387578895 7.59104692993532 -1.6858397690016051 7.645799981248556 -1.781447733314769 C 7.716713831252979 -1.8785899935947974 7.784470557798305 -1.9757322538748392 7.850770150439429 -2.0774887715181674 C 7.9170697430805514 -2.179245289161507 7.755085024063591 -2.261816210399547 7.690728276628071 -2.1651596614209057 Z" fill="#3361e1" transform="matrix(1,0,0,1,0,0)" fill-rule="evenodd"></path></g><g clip-path="url(#SvgjsClipPath1001f449ec9b-53ed-49d9-84a2-5d26806d6c1a)"><path d=" M 8.183482391898547 -2.220045038479128 C 8.098725769804224 -2.1122171295682914 8.013483436408494 -2.003174942403951 7.929941092567656 -1.893404188287505 C 7.8451564140316625 -1.8066283548251771 7.777656552081919 -1.7045131790550645 7.731042314644292 -1.5925060370700894 C 7.725076103269371 -1.564432054888064 7.736147937176705 -1.535471128391607 7.759320824101877 -1.5185370956385942 C 7.782493711027049 -1.5016030628855823 7.813449374536519 -1.4998515874236062 7.8383845122537235 -1.5140636618939611 C 7.9249202323755865 -1.5874450333300203 7.997130605630416 -1.6762053324961617 8.051368917917706 -1.7758620533486589 C 8.132239849600838 -1.8890327865749112 8.213596492585367 -2.0009892415476482 8.295438846871296 -2.1134314078217837 C 8.354209914340714 -2.1918737829979236 8.245653438477772 -2.2997016919087603 8.183482391898547 -2.220045038479128 Z" fill="#3361e1" transform="matrix(1,0,0,1,0,0)" fill-rule="evenodd"></path></g><g clip-path="url(#SvgjsClipPath1001f449ec9b-53ed-49d9-84a2-5d26806d6c1a)"><path d=" M 8.477337729245662 -2.207173688992018 C 8.401081054925836 -2.0969172235741853 8.322638679749701 -1.9886036033619368 8.240796325463773 -1.8827185396566977 C 8.161938410736632 -1.7999036890611118 8.096398329533157 -1.7053621219251083 8.046511804903702 -1.6024631187488039 C 8.022226239833692 -1.5320349800457693 8.113054253195525 -1.4752067577819492 8.17133960936355 -1.5111493940855656 C 8.265310376983955 -1.5886111393851268 8.344323762883043 -1.6826041463609043 8.404481034035644 -1.7884905471850638 C 8.482437697910367 -1.8985041569522032 8.557237238325994 -2.009246333671447 8.62960822223462 -2.1219313555962884 C 8.692507835765937 -2.2181021932735314 8.539751631475585 -2.2984874136552564 8.477337729245662 -2.207173688992018 Z" fill="#3361e1" transform="matrix(1,0,0,1,0,0)" fill-rule="evenodd"></path></g><g clip-path="url(#SvgjsClipPath1001f449ec9b-53ed-49d9-84a2-5d26806d6c1a)"><path d=" M 8.731364739877954 -2.074574503709772 C 8.66239373507913 -1.9790512811010696 8.591479885074701 -1.8853899518144113 8.51862318986467 -1.7935905158497736 C 8.446051365064031 -1.7222094234064356 8.387630386793326 -1.6377503222393397 8.346438533518308 -1.5446634738821858 C 8.339780019182474 -1.5145732606894544 8.351589706211017 -1.483398017437553 8.376513434828913 -1.4652716693517993 C 8.401437163446815 -1.4471453212660697 8.434734433570933 -1.445515504770582 8.461309256299451 -1.4611211300413478 C 8.549714987594275 -1.5281761627748551 8.623233183811937 -1.6128585395205022 8.677207929771836 -1.709805316358242 C 8.745531319502128 -1.8030618862270646 8.81207376779395 -1.8976136862329813 8.876835274647311 -1.9934607163759415 C 8.93730633167163 -2.082831595833583 8.791835796902275 -2.1588454145027027 8.731364739877954 -2.074574503709772 Z" fill="#3361e1" transform="matrix(1,0,0,1,0,0)" fill-rule="evenodd"></path></g><g clip-path="url(#SvgjsClipPath1001f449ec9b-53ed-49d9-84a2-5d26806d6c1a)"><path d=" M 2.9229861420839294 -0.7956966471231075 C 2.887043505780313 -0.7551397534561923 2.852315147730201 -0.7138542928371843 2.818801067933581 -0.6711116983139611 C 2.7812867659892837 -0.6312801524789524 2.7522096174209167 -0.5842776026625058 2.7333158788871574 -0.5329268330656056 C 2.7266361726118094 -0.5025489341376117 2.738477964408957 -0.4710871280250837 2.7635299912465423 -0.4526526177106325 C 2.788582018084128 -0.4342181073961813 2.8221421414799566 -0.43227095704596064 2.8491580242711 -0.4476844996698812 C 2.8887056533827526 -0.4790945304874592 2.9230471285167168 -0.5165505069462268 2.950914541914428 -0.5586695320398256 C 2.9837000547589434 -0.5984978587546355 3.015999856302059 -0.6366261959145483 3.049513936098679 -0.674997388725167 C 3.1247991878156944 -0.7580540212645941 2.996814259896747 -0.8797247022653334 2.9229861420839294 -0.7956966471231075 Z" fill="#3361e1" transform="matrix(1,0,0,1,0,0)" fill-rule="evenodd"></path></g><g clip-path="url(#SvgjsClipPath1001f449ec9b-53ed-49d9-84a2-5d26806d6c1a)"><path d=" M 3.2780411034074506 -0.8362535407900227 L 3.1323277129874008 -0.668683141806965 C 3.0783875496247357 -0.618353437153476 3.037468939781657 -0.5556837943795463 3.0130855884936634 -0.48605569248049374 C 2.999971383355848 -0.43044174847017214 3.0567996056196676 -0.36268502192484586 3.1158135287397903 -0.38769915394696053 C 3.1814233552415274 -0.4201422974255191 3.2377387191850273 -0.4686871437922404 3.2794982373116484 -0.5287982870037116 C 3.328069367451669 -0.585383653616832 3.3739690854339877 -0.6422118758806521 3.4218116486219037 -0.6987972424937663 C 3.5036540029078385 -0.7956966471231075 3.3625548698510874 -0.9329100897686651 3.2780411034074506 -0.8362535407900227 Z" fill="#3361e1" transform="matrix(1,0,0,1,0,0)" fill-rule="evenodd"></path></g><g clip-path="url(#SvgjsClipPath1001f449ec9b-53ed-49d9-84a2-5d26806d6c1a)"><path d=" M 3.77079521867794 -0.8486391789757217 C 3.7168812642225157 -0.787196699348609 3.664424443671301 -0.7257542197214839 3.611481911818675 -0.66406888444366 C 3.554507630440711 -0.6076894618965287 3.509129640540255 -0.5406950477162136 3.4779113039336305 -0.4668700960751879 C 3.450468615404519 -0.38891343220045904 3.5480965869859475 -0.3342709107929416 3.6109962005172758 -0.369727835795147 C 3.673756122808861 -0.4130163717284656 3.7277339376896172 -0.4678182753860165 3.770066651725835 -0.5312268435107024 C 3.818637781865856 -0.5912121892336293 3.8672089120058764 -0.6504689680044509 3.914565763892387 -0.7102114580766727 C 3.995193839924818 -0.8095394192130048 3.8548232738201658 -0.9477242844613603 3.768852373472331 -0.8488820346264152 Z" fill="#3361e1" transform="matrix(1,0,0,1,0,0)" fill-rule="evenodd"></path></g><g clip-path="url(#SvgjsClipPath1001f449ec9b-53ed-49d9-84a2-5d26806d6c1a)"><path d=" M 4.200406864766389 -0.8581105493530252 C 4.138964385139271 -0.7852538541429999 4.078979039416344 -0.7104543137273724 4.02579365191303 -0.6324976498526427 C 3.9772225217730157 -0.5620695111496206 3.89975156919968 -0.4751271881989867 3.9077658056727858 -0.38551345309065255 C 3.909292796570669 -0.3562817364070332 3.925879381040317 -0.32993633693701163 3.951578657154834 -0.3159230515026987 C 3.9772779332693515 -0.3019097660683867 4.008408116390417 -0.30223619592729456 4.033807888386136 -0.3167853039425328 C 4.105450305342657 -0.3529707958968489 4.138964385139271 -0.4481702109712806 4.181706979662488 -0.5132555253589057 C 4.230230782204071 -0.5868851646478763 4.282935983186727 -0.6576723038138077 4.3395631526175436 -0.725268508420073 C 4.418005527793672 -0.8199822121931177 4.281034940798826 -0.9520956861739656 4.200406864766389 -0.8581105493530252 Z" fill="#3361e1" transform="matrix(1,0,0,1,0,0)" fill-rule="evenodd"></path></g><g clip-path="url(#SvgjsClipPath1001f449ec9b-53ed-49d9-84a2-5d26806d6c1a)"><path d=" M 4.667903992364065 -0.8627248067163356 C 4.612047192703049 -0.7898681115062987 4.555461826089923 -0.7170114162962795 4.499362170778207 -0.6422118758806521 C 4.437992982588131 -0.5830964201608699 4.395705255580392 -0.5069785115469445 4.377934345428162 -0.4236417902505707 C 4.378657097190606 -0.3997875546073031 4.390436305312717 -0.3776272178060083 4.409804622925545 -0.36368393264493015 C 4.429172940538378 -0.34974064748385203 4.453925683923718 -0.34560156956356014 4.476776595263107 -0.35248508459544325 C 4.5598332278025335 -0.3821134739808576 4.598204420613147 -0.464927250869585 4.648961251609464 -0.5336554000177101 C 4.7026323504141825 -0.6086977960840381 4.757032016171 -0.683254480848972 4.810945970626424 -0.7585397325659935 C 4.869959893746535 -0.8398963755505235 4.729103616340489 -0.9440814497008594 4.667903992364065 -0.8627248067163356 Z" fill="#3361e1" transform="matrix(1,0,0,1,0,0)" fill-rule="evenodd"></path></g><g clip-path="url(#SvgjsClipPath1001f449ec9b-53ed-49d9-84a2-5d26806d6c1a)"><path d=" M 5.135158264311039 -0.8245964695564165 L 5.016644706769395 -0.6456118549904586 C 4.980459214815079 -0.5899979109801308 4.92703097166106 -0.5326839774149121 4.934802352483466 -0.46322726131468794 C 4.935786797850994 -0.4410942901978876 4.9467886372157075 -0.4206117768673492 4.96469788967412 -0.4075696827287647 C 4.982607142132533 -0.39452758859018555 5.005477733313358 -0.3903431076448154 5.026844644098803 -0.3961991017214599 C 5.098487061055319 -0.4185418215858725 5.128844017392831 -0.4887271046381958 5.16721521020345 -0.5479838834090183 L 5.291557303361897 -0.7383827135578827 C 5.354214061242514 -0.8352821181872248 5.197086455239558 -0.9200387402815551 5.135158264311039 -0.8245964695564165 Z" fill="#3361e1" transform="matrix(1,0,0,1,0,0)" fill-rule="evenodd"></path></g><g clip-path="url(#SvgjsClipPath1001f449ec9b-53ed-49d9-84a2-5d26806d6c1a)"><path d=" M 5.738168844999356 -0.8651533632233317 C 5.70281868607492 -0.8986241355844342 5.647090698996295 -0.8973230930845428 5.61334104053951 -0.8622390954149362 C 5.523355540360053 -0.7613258237096261 5.442111171918235 -0.6529458362082359 5.370485389839424 -0.5382696573810151 C 5.3503218883948565 -0.5022716472086408 5.360013429123983 -0.45690044420449727 5.393124885893766 -0.43228226073253584 C 5.426236342663543 -0.40766407726058684 5.472476313763665 -0.41145051310543224 5.501141729916074 -0.4411273971009795 C 5.589301740029567 -0.5330014331462918 5.6691869433301525 -0.6324719202672577 5.739868834554259 -0.7383827135578827 C 5.7737654955489806 -0.7741118678202685 5.773011398001915 -0.8303459991869566 5.738168844999356 -0.8651533632233317 Z" fill="#3361e1" transform="matrix(1,0,0,1,0,0)" fill-rule="evenodd"></path></g><g clip-path="url(#SvgjsClipPath1001f449ec9b-53ed-49d9-84a2-5d26806d6c1a)"><path d=" M 6.0883666933088785 -0.8561677041474276 C 6.056758218528699 -0.8857380330383693 6.007291245169305 -0.8845499616258188 5.9771388052882415 -0.8534962919897264 C 5.933910499463624 -0.7952109358217081 5.88898220408411 -0.7376541466057898 5.84356819740319 -0.6803402130405702 C 5.795947954504677 -0.627642185820001 5.753193000515349 -0.5707439580775535 5.7158261251349485 -0.5103412575505102 C 5.68546916879743 -0.4518130457317868 5.756625874452557 -0.3677849905895618 5.816368364524773 -0.4144132755239731 C 5.921967938516448 -0.5121294269741119 6.01401748999524 -0.6235363375482708 6.09006668286377 -0.745668383078895 C 6.118578069131969 -0.7774118262523215 6.117622706839309 -0.8258168490806206 6.087880982007479 -0.856410559798122 Z" fill="#3361e1" transform="matrix(1,0,0,1,0,0)" fill-rule="evenodd"></path></g><g clip-path="url(#SvgjsClipPath1001f449ec9b-53ed-49d9-84a2-5d26806d6c1a)"><path d=" M 6.4728071883671205 -0.8738961666485423 C 6.414036120897704 -0.8175536556861163 6.35550790907898 -0.7595111551687976 6.300379676370058 -0.699525809445877 C 6.2397903169120434 -0.6463796693631156 6.192398190925732 -0.5798644048209205 6.161951955471008 -0.5052412888858067 C 6.154826948523831 -0.4729251711241309 6.167506858569613 -0.4394561043483334 6.19425608878748 -0.41997339729989047 C 6.22100531900534 -0.40049069025144846 6.256750450721506 -0.3986895494447191 6.285322626026657 -0.4153846981267719 C 6.347044253503093 -0.4609496144945817 6.400097384843891 -0.5172106095908671 6.441964520728208 -0.5814979632056376 C 6.492964207375231 -0.6404309344421897 6.5454210279264515 -0.6970972529388746 6.59933498238187 -0.7514969186956924 C 6.678748780160802 -0.833824984283015 6.553192408748857 -0.9506385522697558 6.4728071883671205 -0.8738961666485423 Z" fill="#3361e1" transform="matrix(1,0,0,1,0,0)" fill-rule="evenodd"></path></g><g clip-path="url(#SvgjsClipPath1001f449ec9b-53ed-49d9-84a2-5d26806d6c1a)"><path d=" M 6.71274857125881 -0.7714110820530973 C 6.649363246426089 -0.6885973051643637 6.56703518083876 -0.6225405681739407 6.504378422958132 -0.5394839356345074 C 6.480320506083702 -0.5101104213080552 6.4802567009701315 -0.46786302757417086 6.5042257842258 -0.43841697934853396 C 6.528194867481469 -0.40897093112290417 6.56957610808309 -0.40045980460119956 6.603220672793076 -0.41805611028446155 C 6.7016626242733945 -0.4851550821650701 6.784900009406999 -0.5721985505155205 6.8475334573973585 -0.6735402548209457 C 6.9036331127090795 -0.7497969291407891 6.770791071776134 -0.8479106120236288 6.71274857125881 -0.7714110820530973 Z" fill="#3361e1" transform="matrix(1,0,0,1,0,0)" fill-rule="evenodd"></path></g><g clip-path="url(#SvgjsClipPath1001f449ec9b-53ed-49d9-84a2-5d26806d6c1a)"><path d=" M 1.2810390877006266 -6.903759117881038 C 1.0531500631121746 -6.653816119524032 0.8550313070462221 -6.378275389676635 0.6906570008486966 -6.082664162864034 C 0.666380290363862 -6.0386039452161615 0.6824179916790817 -5.983205919317179 0.7264782093269659 -5.958929208832345 C 0.7705384269748503 -5.934652498347511 0.8259364528738324 -5.95069019966273 0.8502131633586669 -5.994750417310614 C 1.0347834578907287 -6.260677354827211 1.2030824238258977 -6.529032848850806 1.4112097164758768 -6.779417024722591 C 1.4855235455900935 -6.867087914625329 1.3570529063697467 -6.9924014303865745 1.2810390877006266 -6.903759117881038 Z" fill="#51a8db" transform="matrix(1,0,0,1,0,0)" fill-rule="evenodd"></path></g><g clip-path="url(#SvgjsClipPath1001f449ec9b-53ed-49d9-84a2-5d26806d6c1a)"><path d=" M 1.8753068649637388 -6.943101733294461 C 1.4586599085712233 -6.486480596102902 1.0663887850650673 -6.008200036341321 0.7001283712260238 -5.510253394163947 C 0.6348002011876872 -5.418696813849992 0.7907135289371453 -5.302368957164662 0.8608988119894744 -5.392225547923691 C 1.236353647971812 -5.874051158912668 1.6057370926866528 -6.357333903805841 2.006448916341799 -6.819245351437413 C 2.08197702370952 -6.9057019630866465 1.9530206731877742 -7.029801200594388 1.8753068649637388 -6.943101733294461 Z" fill="#51a8db" transform="matrix(1,0,0,1,0,0)" fill-rule="evenodd"></path></g><g clip-path="url(#SvgjsClipPath1001f449ec9b-53ed-49d9-84a2-5d26806d6c1a)"><path d=" M 2.489974516885667 -6.88724493363344 C 1.9129494908222582 -6.135606694716659 1.2905104580779299 -5.424282493816101 0.7010997938288223 -4.684058470482233 C 0.6209574290977906 -4.583516231092398 0.7584137273940413 -4.444845654542643 0.8485131738037756 -4.543445048726881 C 1.4750530654585854 -5.253792961366922 2.0653751797396804 -5.99528227915401 2.6172308778524975 -6.765088541331259 C 2.685473315699242 -6.855430843391723 2.5599169442872904 -6.977830091344573 2.489974516885667 -6.88724493363344 Z" fill="#51a8db" transform="matrix(1,0,0,1,0,0)" fill-rule="evenodd"></path></g><g clip-path="url(#SvgjsClipPath1001f449ec9b-53ed-49d9-84a2-5d26806d6c1a)"><path d=" M 3.174584596209219 -6.952087392370365 C 2.424182505929264 -5.9345984317657985 1.6180453098464787 -4.95941808433707 0.7598708612981915 -4.031019625749645 C 0.7228431878852053 -3.9915671656327536 0.724525954428447 -3.92964584080578 0.7636417044611068 -3.8922626452890503 C 0.8027574544937667 -3.8548794497723082 0.8646914723696151 -3.8560017693878423 0.902427128259176 -3.894777605706934 C 1.8005249752399222 -4.80785971350156 2.6086687681997383 -5.805250825191129 3.31568372926597 -6.873159305892849 C 3.375183363687492 -6.96058734014487 3.2335985193293415 -7.035144024909792 3.174584596209219 -6.952087392370365 Z" fill="#51a8db" transform="matrix(1,0,0,1,0,0)" fill-rule="evenodd"></path></g><g clip-path="url(#SvgjsClipPath1001f449ec9b-53ed-49d9-84a2-5d26806d6c1a)"><path d=" M 3.746266797957224 -6.881659253667342 C 2.770229937793572 -5.699923657360707 1.7116221563918925 -4.521588040163879 0.8502131633586669 -3.2541243991601037 C 0.7907135289371453 -3.1666963649080713 0.9279269715826904 -3.0697969602787474 0.9985979659364188 -3.1453250676464686 C 2.0358344500764955 -4.262461060866872 2.9414431715371245 -5.5539674112899515 3.869637468512873 -6.763874263077791 C 3.9349656385511973 -6.849359452124226 3.8166949366602587 -6.967387298364471 3.746266797957224 -6.881659253667342 Z" fill="#51a8db" transform="matrix(1,0,0,1,0,0)" fill-rule="evenodd"></path></g><g clip-path="url(#SvgjsClipPath1001f449ec9b-53ed-49d9-84a2-5d26806d6c1a)"><path d=" M 4.384248592346358 -6.885059232777137 C 3.810981651301966 -6.034354201174744 3.19495676420203 -5.21325787139547 2.5385456470256997 -4.424931491185237 C 1.96734915657907 -3.761206997821889 1.3160103014014441 -3.154796438023772 0.8589559667838654 -2.400972498250689 C 0.789013539382242 -2.285130352866747 0.9672695869961134 -2.1918737829979236 1.0401262822061443 -2.3004302588608656 C 1.5986942788163456 -3.1241966260355594 2.3029756658465974 -3.8177923644350154 2.9208004412276267 -4.594201879723193 C 3.487868385612333 -5.307711781480054 3.998350963383925 -6.06274999950664 4.50956210810761 -6.8158453723276065 C 4.561533217357425 -6.8930734692502424 4.435976845945474 -6.959615917542071 4.384248592346358 -6.885059232777137 Z" fill="#51a8db" transform="matrix(1,0,0,1,0,0)" fill-rule="evenodd"></path></g><g clip-path="url(#SvgjsClipPath1001f449ec9b-53ed-49d9-84a2-5d26806d6c1a)"><path d=" M 5.051858776120901 -6.885059232777137 C 3.9019372700559765 -5.424282493816101 2.7690156595400683 -3.9350916437231556 1.735907721461891 -2.3888297157156844 C 1.66305102625186 -2.278816105948545 1.838392806057324 -2.1877452369360126 1.9127066351715527 -2.291687455435655 C 2.994628559040456 -3.790106820255198 4.052750629140743 -5.301397534561852 5.164543798045742 -6.777717035167699 C 5.224771999419363 -6.857130832946626 5.114029822700124 -6.966173020110967 5.051373064819502 -6.886030655379935 Z" fill="#51a8db" transform="matrix(1,0,0,1,0,0)" fill-rule="evenodd"></path></g><g clip-path="url(#SvgjsClipPath1001f449ec9b-53ed-49d9-84a2-5d26806d6c1a)"><path d=" M 5.544127180089985 -6.881659253667342 C 4.59067589544144 -5.329325934392374 3.534982381848156 -3.860534958958233 2.441889098047046 -2.4043724773604964 C 2.3615038776653203 -2.296787424100353 2.508917257640274 -2.1484026215226013 2.5968310031937056 -2.2567162417348374 C 3.740892747780279 -3.6912412602030535 4.772068609671308 -5.212266253967216 5.681097767084837 -6.806131146299621 C 5.732583165033253 -6.893559180551642 5.596826856291899 -6.967387298364471 5.544127180089985 -6.881659253667342 Z" fill="#51a8db" transform="matrix(1,0,0,1,0,0)" fill-rule="evenodd"></path></g><g clip-path="url(#SvgjsClipPath1001f449ec9b-53ed-49d9-84a2-5d26806d6c1a)"><path d=" M 6.200323148281627 -6.897202015312142 C 5.181624645478316 -5.396030286451332 4.1454405358246085 -3.9065156288241165 3.0917708193204856 -2.4286580424305066 C 3.0111427432880546 -2.3150015979028664 3.201541573436919 -2.2100879568004252 3.281683938167963 -2.32301583437596 C 4.3340584245350104 -3.800387709468171 5.35704737716735 -5.2973499403835165 6.350650796064982 -6.813902527122009 C 6.414036120897704 -6.907887663942938 6.262251339210145 -6.98851573997538 6.200323148281627 -6.897202015312142 Z" fill="#51a8db" transform="matrix(1,0,0,1,0,0)" fill-rule="evenodd"></path></g><g clip-path="url(#SvgjsClipPath1001f449ec9b-53ed-49d9-84a2-5d26806d6c1a)"><path d=" M 6.8567619721239685 -6.896230592709344 C 6.371050670723786 -6.1190925104690495 5.873277538672175 -5.350049616585437 5.363442575969117 -4.589101911058495 C 4.856117121656633 -3.8323637034770166 4.275692116483417 -3.107682441787949 3.8047950097759475 -2.329330081294162 C 3.752581044875426 -2.2414163357407313 3.8827516736506764 -2.142816941556492 3.9505084001959974 -2.221987883684725 C 5.1232583374267335 -3.6009222683598257 6.063352561286769 -5.272740567779248 6.982318343535914 -6.826045309657014 C 7.029432339771724 -6.906673385689445 6.9055759579146825 -6.973701545282673 6.8567619721239685 -6.896230592709344 Z" fill="#51a8db" transform="matrix(1,0,0,1,0,0)" fill-rule="evenodd"></path></g><g clip-path="url(#SvgjsClipPath1001f449ec9b-53ed-49d9-84a2-5d26806d6c1a)"><path d=" M 7.458801130209481 -6.885059232777137 C 6.545663883577151 -5.337340170865468 5.48681324652476 -3.903034697830745 4.504462139442905 -2.402915343456298 C 4.438405402452482 -2.3001874032101597 4.599904410168038 -2.1792452891615195 4.678589640994872 -2.2749304155373506 C 5.807868416750286 -3.655321934116661 6.733148445917626 -5.253312115723242 7.612285901451949 -6.8000597550321125 C 7.635757858551548 -6.842443404289991 7.62042690315436 -6.8958299214481835 7.5780432540713685 -6.9193018788635525 C 7.535659604988366 -6.942773836278933 7.482273087715956 -6.927442881279503 7.458801129984788 -6.885059232371399 Z" fill="#51a8db" transform="matrix(1,0,0,1,0,0)" fill-rule="evenodd"></path></g><g clip-path="url(#SvgjsClipPath1001f449ec9b-53ed-49d9-84a2-5d26806d6c1a)"><path d=" M 8.146568332992139 -6.891373479695339 C 7.230031107250004 -5.342925850831577 6.198137447425331 -3.870734896287641 5.164543798045748 -2.398543941743693 C 5.089987113280825 -2.2912017441342556 5.268486016545385 -2.193573772552827 5.343042701310319 -2.3001874032101597 C 6.397587344649137 -3.755230324111747 7.378342070834906 -5.262350438053748 8.281596074781472 -6.8158453723277255 C 8.300494549577982 -6.853178070009384 8.286441349599079 -6.898771811913272 8.249805025347268 -6.918987212259357 C 8.213168701095462 -6.939202612605444 8.167103613437277 -6.926781282987028 8.14559691038934 -6.89088776839394 Z" fill="#51a8db" transform="matrix(1,0,0,1,0,0)" fill-rule="evenodd"></path></g><g clip-path="url(#SvgjsClipPath1001f449ec9b-53ed-49d9-84a2-5d26806d6c1a)"><path d=" M 8.619165429254512 -6.7891312507506 C 7.712342429540379 -5.244083600996644 6.660048895056896 -3.818035220085721 5.668712128899132 -2.3303015038969725 C 5.61334104053951 -2.246516304405441 5.74691164842456 -2.1479169102212134 5.8117541071614855 -2.225387862794544 C 6.946375707232297 -3.589022341475538 7.880641395475542 -5.176084018800618 8.753707459742362 -6.714817421636383 C 8.771267539647209 -6.751590425465654 8.757129477251022 -6.795677701331181 8.72145856918242 -6.815380405065815 C 8.685787661113826 -6.835083108800461 8.6409418766576 -6.8235753584527075 8.619165429254506 -6.7891312507506 Z" fill="#51a8db" transform="matrix(1,0,0,1,0,0)" fill-rule="evenodd"></path></g><g clip-path="url(#SvgjsClipPath1001f449ec9b-53ed-49d9-84a2-5d26806d6c1a)"><path d=" M 8.764150252722464 -6.139978096429265 C 7.982397913118876 -4.857214549431395 7.095003365460755 -3.6385648942183453 6.3164081493162625 -2.357258481124685 C 6.264194184415742 -2.27177329207825 6.397279080999393 -2.169773918784216 6.460421550181415 -2.2513734174194457 C 7.353583153370859 -3.4692843803165694 8.166364921620776 -4.744148686938731 8.893592314545584 -6.067849968171303 C 8.942649155987029 -6.150420889409366 8.813692805465283 -6.220849028112402 8.764150252722464 -6.139978096429265 Z" fill="#51a8db" transform="matrix(1,0,0,1,0,0)" fill-rule="evenodd"></path></g><g clip-path="url(#SvgjsClipPath1001f449ec9b-53ed-49d9-84a2-5d26806d6c1a)"><path d=" M 8.751764614536759 -5.288526185074754 C 8.18299668059715 -4.298160841519794 7.518543620281708 -3.3850235948874587 6.88444751630378 -2.438372268458515 C 6.824219314930159 -2.349001389000886 6.968961282747411 -2.241173480090037 7.037689431895536 -2.3256872465336738 C 7.74148635180762 -3.2290554585779856 8.358712913995793 -4.196648145976128 8.881206676359898 -5.215669489864723 C 8.901325497203693 -5.2514139282305266 8.888658431419133 -5.29670004753754 8.85291399305334 -5.316818868381329 C 8.81716955468756 -5.336937689225105 8.771883435380541 -5.324270623440546 8.751764614536759 -5.288526185074754 Z" fill="#51a8db" transform="matrix(1,0,0,1,0,0)" fill-rule="evenodd"></path></g><g clip-path="url(#SvgjsClipPath1001f449ec9b-53ed-49d9-84a2-5d26806d6c1a)"><path d=" M 8.738407553748255 -4.379760340155023 C 8.298110259028991 -3.7211358154563734 7.820170338451216 -3.088982556684048 7.375987353320753 -2.4332722997938054 C 7.316730574549931 -2.346087121192478 7.460986831065783 -2.2389877792337343 7.526557856754808 -2.322530123074573 C 8.019311972025285 -2.949340557531495 8.449409329415147 -3.630550657745252 8.880478109407798 -4.3008322536774966 C 8.93852060992513 -4.38996027748442 8.795235776012076 -4.466702663105657 8.738407553748255 -4.379760340155023 Z" fill="#51a8db" transform="matrix(1,0,0,1,0,0)" fill-rule="evenodd"></path></g><g clip-path="url(#SvgjsClipPath1001f449ec9b-53ed-49d9-84a2-5d26806d6c1a)"><path d=" M 8.779935870017969 -3.693450271276568 C 8.454266442429144 -3.2563101000164063 8.110868552339223 -2.824755608722354 7.80851326721761 -2.369644119310384 C 7.747070787590491 -2.276387549441549 7.898127002325945 -2.163216816215308 7.9675837184261695 -2.253073406974349 C 8.301267382488088 -2.6855993208711997 8.599008410246402 -3.1484821911055696 8.909135076190415 -3.598250856202136 C 8.96062047413883 -3.673050396617764 8.834092680124087 -3.7672783890893977 8.779935870017969 -3.693450271276568 Z" fill="#51a8db" transform="matrix(1,0,0,1,0,0)" fill-rule="evenodd"></path></g><g clip-path="url(#SvgjsClipPath1001f449ec9b-53ed-49d9-84a2-5d26806d6c1a)"><path d=" M 8.736221852891953 -2.917769322940484 C 8.655108065558123 -2.8206270626604546 8.573751422573594 -2.723484802380413 8.493366202191869 -2.6263425421003834 C 8.407997285525143 -2.543122163388273 8.3344543335525 -2.4485786129078884 8.274796116561786 -2.3453585542403736 C 8.24929627323828 -2.285373208517453 8.310738752865397 -2.2045022768343285 8.375338355951616 -2.2482162939603443 C 8.464895754289468 -2.325981639020733 8.543125852598607 -2.415901292249628 8.6077512136716 -2.515357509730446 C 8.686679300149128 -2.6144426152160722 8.764635964023856 -2.713770576352416 8.84356405050139 -2.8126128261873484 C 8.901363695368008 -2.889598067459267 8.797664332519078 -2.991840296404007 8.736221852891953 -2.917769322940484 Z" fill="#51a8db" transform="matrix(1,0,0,1,0,0)" fill-rule="evenodd"></path></g><g clip-path="url(#SvgjsClipPath1001f449ec9b-53ed-49d9-84a2-5d26806d6c1a)"><path d=" M 9.010891593833755 -6.641232159474248 C 8.940220599480032 -7.005515635524378 8.632279634392315 -7.072058083816207 8.306610206803498 -7.074972351624602 C 7.779856300435 -7.079586608987913 7.253588105367909 -7.078858042035808 6.728048477252922 -7.081772309844204 C 5.656731250131261 -7.086143711556809 4.5852521192424724 -7.089948450084439 3.513611084586541 -7.093186525427116 C 2.986938130101621 -7.094319851797043 2.460750886918088 -7.095534130050548 1.935049355035966 -7.096829360187605 C 1.6285655238524535 -7.096829360187605 1.010012181519331 -7.183285971836838 0.764485118661538 -6.938973187232549 C 0.6798425862778064 -6.819068539951492 0.6437461710474697 -6.6715591507890775 0.6634571679703026 -6.526118581042398 C 0.6549572201957978 -6.266505890444014 0.6530143749902009 -6.006893199845607 0.6515572410860031 -5.746794797945813 C 0.6481572619761964 -5.209112387295815 0.6554429314971971 -4.671429976645829 0.6690428479364 -4.133504710345125 C 0.6821570530742156 -3.613955521614065 0.6998045636917536 -3.09464918853371 0.7219853797890259 -2.5755857111040603 C 0.7326710284198332 -2.3162158761563587 0.7448138109548266 -2.056117474256564 0.7564708821884324 -1.7965047836581691 C 0.7610851395517313 -1.6799340713221342 0.743842388352028 -1.5186779192572724 0.8453560503446744 -1.4344070084643405 C 0.9628981852835201 -1.3372647481842996 1.1695683440292894 -1.3800073427075175 1.3067817866748346 -1.3787930644540136 L 2.146576626795752 -1.3749073740428077 C 2.6695257946366073 -1.3710216836316134 3.192070203059628 -1.368026463939641 3.7142098520648257 -1.3659217149669036 L 3.7188241094281245 -1.3659217149669036 C 3.720524098983028 -1.3173505848268947 3.7329097371687268 -1.2702365885910716 3.7370382832306266 -1.220208324546853 C 3.743071736868104 -1.1498301632066088 3.741687946311423 -1.0790126464823224 3.7329097371687268 -1.0089239084377732 C 3.7310665696491103 -0.9937607608314369 3.7310665696491103 -0.9784301937125077 3.7329097371687268 -0.9632670461061599 C 3.6384388890463875 -0.9593813556949655 3.5432394739719553 -0.9564670878865584 3.448282914548228 -0.9513671192218602 C 3.3006266789225696 -0.9445671610022588 3.152727587646217 -0.936471972645589 3.0045856407191707 -0.92708155415185 C 2.881719524139815 -0.9349940670138901 2.7583556008648076 -0.9250136965632629 2.6383593194634307 -0.8974531647664357 C 2.53986413198591 -0.848713647094983 2.4841886020498656 -0.7418794732494636 2.500660165516474 -0.6332262168047418 C 2.536845657470784 -0.23057154794399892 3.0810851706896902 -0.3000282640442169 3.355512055980792 -0.29687114058512165 L 5.069830094272721 -0.2767141215770108 C 5.344985546515922 -0.27379985376860905 5.621840988314021 -0.2708855859602082 5.897725007509321 -0.26869988510391174 C 6.171890208664374 -0.24635121598546394 6.447448628450795 -0.24708235566061099 6.721491374684038 -0.2708855859602082 C 6.907861456334314 -0.2856952808118196 7.0516030761843265 -0.44116875345842566 7.051775059636144 -0.6281262481400436 C 7.0661035430274515 -0.7517397743463858 6.930347234286098 -0.9001245769241377 6.7819624317083465 -0.9355815019263547 C 6.524668341143376 -0.9724553635526716 6.264423605060223 -0.9844916825965289 6.004824349468076 -0.9715241382299711 C 5.991710144330261 -0.9715241382299586 5.978595939192457 -0.9715241382299586 5.9659674453560525 -0.9715241382299586 C 5.998191630716313 -1.099217639359881 6.002169817022629 -1.2324040017402123 5.977624516589659 -1.3617931689050158 C 6.2677560672927015 -1.3617931689050033 6.557644762345033 -1.3617931689050033 6.847290601746671 -1.3617931689050033 C 7.145841148340649 -1.3617931689050033 7.444553598701756 -1.3617931689050033 7.743427952830003 -1.3617931689050033 C 8.020256791599856 -1.343429411405781 8.29812580526185 -1.3478155343925504 8.574237133875009 -1.3749073740428077 C 9.009920171230963 -1.4516497596640443 8.919092157869128 -1.9181754646589146 8.92224928132823 -2.2545305408785348 C 8.93050637345203 -3.090925401889633 8.928806383897125 -3.9278059742021427 8.929292095198532 -4.764200835213253 C 8.94167773338423 -4.922785575120413 8.955277649823438 -5.079913181123375 8.971063267118945 -5.239226487982628 C 8.994134553935451 -5.469453644846303 8.997534533045258 -5.7018665025662925 9.006763047771855 -5.933550793334177 C 9.035185865398415 -6.167360983740428 9.03681546006118 -6.403652209841615 9.011620160785853 -6.63783218036444 L 9.011620160785853 -6.63783218036444 Z M 8.046997516205103 -1.9946749946294453 C 8.098378520372224 -1.9664413338298496 8.130027752426644 -1.9121988446746219 8.129325581792436 -1.8535758615727067 C 8.12887680016658 -1.7884555099451118 8.09126630162223 -1.7293141695856686 8.032481783894017 -1.7012919984258712 C 7.973697266165805 -1.6732698272660622 7.904070443892312 -1.6812918818882432 7.853198706946431 -1.7219480988932352 C 7.841248899623177 -1.733330340720527 7.830949254014036 -1.7463275125606303 7.822598894958218 -1.7605621473545652 C 7.799502909036096 -1.7903049196654761 7.788643501071197 -1.827748158328446 7.792241938620712 -1.8652329328063004 C 7.7977369916466595 -1.9197832663954726 7.830452794522559 -1.9678517365427517 7.8791842615713445 -1.9929750050745545 C 7.93123196354628 -2.0209808725140173 7.993740726328636 -2.0215260070731667 8.046268949253003 -1.9944321389787403 Z M 8.702707773095344 -2.350944234206483 C 6.135966400846106 -2.4157866929433967 3.554167978253456 -2.4162724042448076 0.9876694616549178 -2.3378300290686678 C 0.9750409678185133 -2.6605851888490966 0.9619267626807096 -2.9823689260267034 0.9509982583991967 -3.305609797108532 C 0.9206413020616897 -4.1959186125750545 0.8999985717521798 -5.086227428041577 0.9104413647322815 -5.977021954809512 C 0.8843738031243448 -6.199109607532692 0.8887041228876241 -6.423714306197632 0.9233127142193915 -6.644632138584042 C 1.0063693467588188 -6.883844954523645 1.3993097895915652 -6.827502443561212 1.6067085152894394 -6.828231010513317 C 2.0562343247353 -6.828231010513317 2.504060144626269 -6.822402474896514 2.953343098421424 -6.819245351437413 C 3.855794696422964 -6.813902527122021 4.758246294424486 -6.807345424553113 5.66045503677532 -6.804431156744706 C 6.1495663172852915 -6.80200260023771 6.63851569402814 -6.799735947497843 7.127303167003853 -6.797631198525105 C 7.390558692362749 -6.7964978721551645 7.65381421772165 -6.795445497668802 7.917069743080546 -6.794474075066003 C 8.192953762275845 -6.793016941161806 8.658750900318617 -6.900844850072643 8.739864687652448 -6.534375673166209 C 8.757741538356742 -6.333044919283108 8.751709078158722 -6.130305344790447 8.72189336950064 -5.9303936698751 C 8.711207720869831 -5.673452391434394 8.700279216588331 -5.420396803404907 8.70465061830093 -5.163212669313508 C 8.713393421726135 -4.653215802843327 8.694450680971528 -4.140790379866138 8.680365053230926 -3.630307802094546 C 8.678301989823815 -3.6014025061688284 8.69254357458898 -3.5737625883680204 8.717279112137334 -3.558665385138019 C 8.714850555630338 -3.419751952937571 8.711207720869831 -3.2815670876892273 8.709750586965628 -3.1428965111394724 C 8.705864896554427 -2.9207645426324556 8.702141109910363 -2.6982278147076046 8.698579227033427 -2.4752863273649304 C 8.698579227033427 -2.4378865571571158 8.700279216588331 -2.3958725295860033 8.702707773095327 -2.3507013785557893 L 8.702707773095327 -2.3507013785557893 Z M 0.9983551102857251 -2.074574503709772 C 3.5726250077066637 -2.1003172026839803 6.145599674990545 -2.1138361672396186 8.717279112137346 -2.115131397376687 C 8.726878210299848 -2.0117204903969395 8.717411854206102 -1.9074259410858696 8.689350712306835 -1.8074332879396824 C 8.57909424688899 -1.5036208689138713 8.201939421351756 -1.5963917274813078 7.960783760206568 -1.5968774387827072 C 7.736547042726825 -1.5968774387827072 7.5125531808977755 -1.5972821982005412 7.288802174719426 -1.5980917170361986 C 5.4971750876213035 -1.6024631187488039 3.705386096756039 -1.6119344891261074 1.9134352021236576 -1.626505828168109 C 1.6897651478288784 -1.6291772403258111 1.4653665265819946 -1.6308772298807144 1.2419393279379092 -1.633062930737017 C 1.237567926225304 -1.633062930737017 1.0192406962459288 -1.6350057759426138 1.0163264284375213 -1.6362200541961176 C 0.999822498119885 -1.7468794112296289 0.9951008842823857 -1.8589770363026377 1.0022408006969192 -1.970632285210141 L 0.9988408215871244 -2.074574503709772 Z M 3.9568226471142056 -1.366164570617621 C 4.5489047235210265 -1.363897917877754 5.140824896160708 -1.3627645915078137 5.732583165033258 -1.3627645915078137 C 5.742641023911006 -1.3031256494973293 5.749289870840354 -1.242961693136647 5.752497328390664 -1.1825656986883457 C 5.752343834469251 -1.113623743051325 5.742950746770776 -1.045013363340698 5.724568928560171 -0.978566952100338 C 5.5582128078305875 -0.981724075559379 5.391128120148928 -0.9843954877170811 5.2245291437686685 -0.9856097659705734 C 4.802931734153319 -0.9892526007310734 4.380362901935158 -0.9836669207649757 3.9587654923198086 -0.9712812825792652 C 3.97062656142812 -1.050595221411327 3.9750981053109786 -1.1308391089090746 3.9721225531083117 -1.2109798098202553 C 3.9714379338492467 -1.2630486420883438 3.9663194643898887 -1.3149645466047124 3.9568226471142114 -1.3661645706176326 Z M 6.633820484781283 -0.5018413097759993 C 6.5886493337510625 -0.5018413097759993 6.5427496157687495 -0.5018413097759993 6.497821320389235 -0.5018413097759993 L 6.276336966950753 -0.5057270001871998 C 6.110466557522592 -0.5086412679956007 5.944839003745125 -0.510826968851898 5.77969716126907 -0.5137412366602989 C 5.447956342412748 -0.5193269166264027 5.115972667905727 -0.5232126070376024 4.783988993398706 -0.527341153099508 L 3.2923695867987584 -0.5465267495048147 C 3.2457413018643466 -0.5465267495048147 2.737930136250468 -0.5290411426544113 2.7850441324862794 -0.6555689366691615 C 2.8093296975562896 -0.7172542719469792 3.6270246734634872 -0.6915115729727717 3.7299954693603192 -0.6949115520825719 C 4.063436277771544 -0.7051114894119799 4.396634230532069 -0.7119114476315813 4.730560750244687 -0.7136114371864792 C 5.064487269957311 -0.7153114267413825 5.397685222717836 -0.7136114371864792 5.731126031129055 -0.7046257781105751 C 5.897725007509321 -0.7009829433500805 6.065295406492378 -0.6953972633839713 6.231165815920539 -0.6893258721164743 C 6.418231820976598 -0.6910127581414915 6.604637505631048 -0.6669050523225319 6.785119555167442 -0.6176834551599599 C 6.734848435472523 -0.5788265510479365 6.683605893174807 -0.5402125025866242 6.6333347734798895 -0.5015984541253058 Z" fill="#000000" transform="matrix(1,0,0,1,0,0)" fill-rule="evenodd"></path></g></g></g><defs><clipPath id="SvgjsClipPath1002"><path d=" M 0.6484001176268901 -7.111643554880311 h 8.38264849521497 v 6.861643554880311 h -8.38264849521497 Z"></path></clipPath><clipPath id="SvgjsClipPath1001f449ec9b-53ed-49d9-84a2-5d26806d6c1a"><path d=" M 0.6484001176268901 -7.111643554880312 L 9.03104861284186 -7.111643554880312 L 9.03104861284186 -0.24999999999999822 L 0.6484001176268901 -0.24999999999999822 Z"></path></clipPath></defs></svg>